<svg width="200" height="22" viewBox="0 0 200 22" fill="none" xmlns="http://www.w3.org/2000/svg">
<g clip-path="url(#clip0_84_2247)">
<path d="M0 0.75C1.47362 0.75 2.94821 0.75 4.42183 0.75C4.42856 2.02464 4.40741 3.30024 4.4324 4.57488C4.45259 5.71879 4.73424 6.92326 5.53113 7.78359C6.31456 8.62662 7.5075 8.94961 8.6293 8.92365C9.96065 8.93134 11.3314 8.33248 12.0716 7.19433C12.1379 7.65959 12.2139 8.12196 12.2888 8.58625C13.1184 8.58241 13.9489 8.58529 14.7795 8.58433C14.7968 5.97256 14.7516 3.36176 14.7555 0.75C16.2291 0.75 17.7037 0.75 19.1773 0.75C19.1773 7.32699 19.1773 13.903 19.1773 20.48C17.7037 20.48 16.2291 20.48 14.7555 20.48C14.7372 19.6379 14.791 18.7968 14.7795 17.9548C14.767 17.0137 14.8448 16.0543 14.6045 15.1325C14.3998 14.2683 13.9307 13.4397 13.1924 12.9244C12.2927 12.2794 11.1286 12.1352 10.051 12.241C8.9023 12.3631 7.78434 12.9523 7.14414 13.9328C7.07397 13.4628 6.99899 12.9946 6.92977 12.5255C6.10116 12.5255 5.27351 12.5255 4.44586 12.5255C4.44586 15.1767 4.44586 17.8288 4.44586 20.48C2.96359 20.48 1.48227 20.48 0 20.48C0 13.903 0 7.32699 0 0.75Z" fill="#EDE1CF"/>
<path d="M56.4268 0.75C57.9004 0.75 59.375 0.75 60.8486 0.75C60.8486 7.32699 60.8486 13.903 60.8486 20.48C59.375 20.48 57.9004 20.48 56.4268 20.48C56.4268 13.903 56.4268 7.32699 56.4268 0.75Z" fill="#EDE1CF"/>
<path d="M75.2676 0.75C76.7412 0.75 78.2158 0.75 79.6894 0.75C79.6894 3.91353 79.6904 7.07706 79.6894 10.2406C79.7452 10.2416 79.8576 10.2454 79.9143 10.2464C80.1758 8.83137 80.8833 7.45388 82.058 6.58585C83.398 5.5746 85.1648 5.32467 86.798 5.49097C88.262 5.63228 89.727 6.28305 90.6257 7.47983C91.5928 8.72275 91.8975 10.3521 91.8254 11.8949C91.8254 14.7653 91.8254 17.6347 91.8254 20.504C90.3518 20.504 88.8772 20.504 87.4036 20.504C87.4036 17.9884 87.4026 15.4728 87.4045 12.9562C87.4266 12.0305 87.3382 10.9894 86.6624 10.2877C85.9876 9.61865 84.9879 9.47734 84.0814 9.43024C82.9529 9.40333 81.7138 9.42159 80.7622 10.1108C79.9489 10.7203 79.7163 11.795 79.6904 12.7562C79.6884 15.3305 79.6904 17.9057 79.6894 20.48C78.2158 20.48 76.7412 20.48 75.2676 20.48C75.2676 13.903 75.2676 7.32699 75.2676 0.75Z" fill="#EDE1CF"/>
<path d="M96.2471 20.4801C96.2471 13.9031 96.2471 7.32706 96.2471 0.750071C97.0161 0.751993 97.7861 0.747187 98.556 0.752954C101.172 4.14334 103.792 7.53181 106.41 10.9203C107.506 12.3574 108.645 13.7627 109.693 15.2354C110.177 15.9064 110.665 16.5735 111.147 17.2454C111.221 17.3694 111.341 17.4463 111.473 17.5021C111.365 11.92 111.427 6.33407 111.411 0.750071C112.116 0.750071 112.82 0.750071 113.526 0.750071C113.526 7.32706 113.526 13.9031 113.526 20.4801C112.754 20.481 111.982 20.4782 111.21 20.481C108.735 17.3031 106.266 14.1194 103.794 10.9395C102.135 8.81414 100.478 6.68686 98.8877 4.50959C98.7012 4.28657 98.5733 3.99146 98.2917 3.87323C98.4234 9.40628 98.3378 14.9441 98.3619 20.4801C97.6563 20.4801 96.9517 20.4801 96.2471 20.4801Z" fill="#EDE1CF"/>
<path d="M143.901 0.75C144.598 0.75 145.295 0.75 145.992 0.75C145.992 1.86315 145.992 2.97726 145.992 4.0904C145.295 4.0904 144.598 4.0904 143.901 4.0904C143.901 2.97726 143.901 1.86315 143.901 0.75Z" fill="#EDE1CF"/>
<path d="M134.433 2.48047C135.138 2.48047 135.842 2.48047 136.548 2.48047C136.548 3.63399 136.548 4.78751 136.548 5.94103C138.478 5.94103 140.408 5.94103 142.339 5.94103C142.339 6.54182 142.339 7.14261 142.339 7.74341C140.409 7.74341 138.478 7.74341 136.548 7.74341C136.547 10.4446 136.55 13.1448 136.547 15.8459C136.543 16.5746 136.624 17.3974 137.181 17.93C137.768 18.4635 138.605 18.5375 139.361 18.575C140.354 18.5913 141.346 18.5769 142.339 18.5817C142.339 19.2142 142.339 19.8477 142.339 20.4802C141.153 20.4792 139.967 20.4812 138.781 20.4802C137.787 20.4475 136.755 20.238 135.939 19.64C135.202 19.1094 134.753 18.2587 134.574 17.382C134.368 16.4986 134.448 15.5873 134.433 14.6886C134.433 12.3738 134.433 10.0581 134.433 7.74341C133.568 7.74341 132.703 7.74341 131.838 7.74341C131.837 7.14261 131.837 6.54182 131.838 5.94103C132.703 5.94103 133.568 5.94103 134.433 5.94103C134.433 4.78751 134.433 3.63399 134.433 2.48047Z" fill="#EDE1CF"/>
<path d="M64.4053 2.88867C65.8789 2.88867 67.3535 2.88867 68.8271 2.88867C68.8271 3.8336 68.8271 4.77948 68.8271 5.72441C70.4209 5.72441 72.0147 5.72441 73.6094 5.72441C73.6094 6.94234 73.6094 8.1593 73.6094 9.37722C72.0156 9.37722 70.4209 9.37722 68.8271 9.37722C68.8262 11.0527 68.8281 12.7282 68.8262 14.4037C68.8223 14.9391 68.8079 15.537 69.152 15.984C69.5269 16.4454 70.1719 16.4829 70.7208 16.5117C71.683 16.5194 72.6462 16.5117 73.6094 16.5146C73.6094 17.8364 73.6094 19.1581 73.6094 20.4799C72.229 20.4779 70.8487 20.4827 69.4683 20.4779C68.1071 20.427 66.67 20.0483 65.6972 19.0418C64.7802 18.0969 64.4389 16.7463 64.4063 15.462C64.4043 13.4338 64.4063 11.4055 64.4053 9.37722C63.6276 9.37722 62.8509 9.37722 62.0742 9.37722C62.0742 8.1593 62.0742 6.94234 62.0742 5.72441C62.8509 5.72441 63.6276 5.72441 64.4053 5.72441C64.4053 4.77948 64.4053 3.8336 64.4053 2.88867Z" fill="#EDE1CF"/>
<path d="M25.2289 6.2993C27.1072 5.41493 29.2653 5.28132 31.2955 5.59565C33.0286 5.86481 34.7512 6.62805 35.8855 8.00362C37.2601 9.6522 37.5947 11.9458 37.2649 14.0154C33.2517 14.0163 29.2374 14.0135 25.2231 14.0163C25.2827 14.9142 25.4904 15.912 26.2382 16.4974C27.1245 17.1914 28.3107 17.2443 29.3912 17.2606C30.3448 17.2203 31.3829 17.202 32.1991 16.6425C32.722 16.2888 32.8546 15.6149 32.8056 15.0247C34.2792 15.0247 35.7519 15.0247 37.2255 15.0247C37.3197 16.3368 36.8228 17.6711 35.8836 18.592C34.5378 19.9503 32.6105 20.5366 30.7524 20.727C29.941 20.7644 29.1278 20.7385 28.3165 20.7414C26.5641 20.6174 24.7733 20.0896 23.4217 18.9255C22.248 17.9249 21.5319 16.4666 21.2791 14.9594C20.9619 13.0955 21.106 11.097 21.9789 9.39554C22.6729 8.03535 23.8466 6.9395 25.2289 6.2993ZM26.2671 9.64547C25.6355 10.1271 25.3721 10.924 25.2799 11.6834C27.8993 11.6882 30.5178 11.6776 33.1363 11.6891C33.0921 10.9316 32.8431 10.1328 32.2289 9.64451C31.431 9.02161 30.3707 8.90049 29.3902 8.89472C28.3194 8.8803 27.1466 8.96489 26.2671 9.64547Z" fill="#EDE1CF"/>
<path d="M40.5194 7.74538C41.8594 6.33232 43.8108 5.67865 45.7103 5.50082C47.5146 5.34702 49.4102 5.47583 51.0597 6.28233C52.1873 6.82737 53.1216 7.76653 53.6244 8.91716C54.0608 9.87747 54.2127 10.9464 54.1925 11.9942C54.1906 14.8309 54.1915 17.6676 54.1915 20.5043C52.814 20.5043 51.4356 20.5043 50.0581 20.5043C50.0571 19.3738 50.06 18.2434 50.0562 17.1129C50.0004 17.1139 49.887 17.1168 49.8312 17.1187C49.4804 18.3184 48.6518 19.3661 47.5463 19.9554C46.6687 20.4312 45.6766 20.6898 44.6817 20.7436C43.7493 20.7225 42.7986 20.8301 41.8854 20.5869C40.8482 20.3476 39.8139 19.8102 39.2429 18.8778C38.7046 18.0117 38.5979 16.9264 38.8132 15.9421C39.0266 14.9914 39.7331 14.2118 40.5858 13.7706C41.4615 13.3092 42.4439 13.0929 43.4215 12.9891C45.5622 12.769 47.702 12.5536 49.8428 12.3316C49.8283 11.6327 49.8803 10.8695 49.4977 10.2504C49.1631 9.70829 48.5104 9.49392 47.9125 9.40933C47.0628 9.30167 46.1986 9.29494 45.3498 9.41222C44.7817 9.49585 44.1684 9.68233 43.8175 10.1697C43.4907 10.6119 43.4753 11.1829 43.4436 11.7087C41.9613 11.7087 40.4791 11.7087 38.9978 11.7087C38.9833 10.2581 39.4995 8.7922 40.5194 7.74538ZM44.8951 15.4288C44.4328 15.4826 43.9358 15.4999 43.533 15.7623C42.9755 16.1469 43.0514 17.1437 43.6772 17.4234C44.2011 17.6714 44.8009 17.6666 45.3681 17.6637C46.535 17.6147 47.7924 17.557 48.7959 16.887C49.4727 16.4497 49.7985 15.6403 49.836 14.8597C48.1894 15.052 46.5418 15.2394 44.8951 15.4288Z" fill="#EDE1CF"/>
<path d="M122.106 5.7364C124.176 5.47109 126.387 5.80273 128.15 6.96682C129.464 7.8137 130.457 9.12679 130.947 10.6071C131.467 12.1913 131.495 13.9312 131.041 15.5346C130.627 16.9938 129.738 18.3232 128.515 19.2249C127.532 19.968 126.357 20.4284 125.148 20.6408C124.285 20.812 123.401 20.7274 122.528 20.7418C120.839 20.6178 119.161 19.991 117.891 18.8548C116.659 17.7647 115.873 16.2181 115.626 14.6002C115.321 12.6537 115.646 10.56 116.755 8.90474C117.931 7.09563 119.991 5.99306 122.106 5.7364ZM121.922 7.65221C120.846 7.82235 119.784 8.26453 119.01 9.04893C117.904 10.1717 117.553 11.8164 117.585 13.3448C117.585 14.9136 118.045 16.6026 119.289 17.6446C120.637 18.7837 122.505 18.9827 124.203 18.874C125.437 18.7798 126.708 18.428 127.649 17.5888C128.652 16.717 129.139 15.3933 129.254 14.0965C129.373 12.6883 129.248 11.1954 128.534 9.94675C127.953 8.91627 126.929 8.18186 125.801 7.85503C124.548 7.48687 123.209 7.45515 121.922 7.65221Z" fill="#EDE1CF"/>
<path d="M154.599 5.73317C156.446 5.50247 158.391 5.7399 160.047 6.62331C161.566 7.41443 162.768 8.78904 163.349 10.4001C163.929 11.9929 163.975 13.7665 163.554 15.4035C163.145 16.9531 162.204 18.3652 160.894 19.2957C159.93 19.9926 158.796 20.4338 157.629 20.6386C156.767 20.8126 155.884 20.7261 155.012 20.7414C153.146 20.6069 151.282 19.8532 149.985 18.4786C148.824 17.2924 148.171 15.6669 148.031 14.0251C147.859 12.2054 148.255 10.2953 149.311 8.78423C150.508 7.04146 152.523 5.97926 154.599 5.73317ZM154.402 7.64994C153.309 7.83066 152.219 8.2738 151.449 9.09472C150.502 10.0608 150.127 11.4402 150.069 12.761C150.005 14.1029 150.19 15.5189 150.921 16.6753C151.75 18.0249 153.327 18.7103 154.857 18.8477C156.673 19.0131 158.7 18.8295 160.132 17.5837C161.424 16.4494 161.822 14.6345 161.762 12.9811C161.757 11.3383 161.182 9.56767 159.786 8.5891C158.24 7.49998 156.219 7.3952 154.402 7.64994Z" fill="#EDE1CF"/>
<path d="M171.551 6.10377C173.019 5.54431 174.676 5.50394 176.183 5.93939C177.602 6.34985 178.828 7.36495 179.485 8.69054C179.998 9.70948 180.248 10.8601 180.214 12.0002C180.212 14.8273 180.214 17.6534 180.213 20.4805C179.524 20.4805 178.835 20.4805 178.146 20.4805C178.146 17.8774 178.145 15.2752 178.147 12.6721C178.147 11.7762 178.094 10.8582 177.759 10.018C177.427 9.12599 176.718 8.38389 175.842 8.01188C174.827 7.56778 173.686 7.51491 172.595 7.59854C171.336 7.70428 170.064 8.21471 169.243 9.20386C168.624 9.93346 168.271 10.8534 168.102 11.7868C167.911 12.7759 167.964 13.7872 167.957 14.7888C167.957 16.6854 167.957 18.5829 167.957 20.4805C167.259 20.4805 166.562 20.4805 165.866 20.4805C165.866 15.6338 165.866 10.788 165.866 5.94131C166.499 5.94131 167.131 5.94131 167.765 5.94131C167.781 7.48607 167.731 9.03371 167.792 10.5765C167.948 10.4151 167.97 10.1843 168.039 9.9796C168.531 8.23874 169.855 6.74974 171.551 6.10377Z" fill="#EDE1CF"/>
<path d="M143.901 5.94141C144.598 5.94141 145.295 5.94141 145.992 5.94141C145.992 10.7881 145.992 15.6339 145.992 20.4806C145.294 20.4806 144.598 20.4806 143.901 20.4806C143.901 15.6339 143.901 10.7881 143.901 5.94141Z" fill="#EDE1CF"/>
</g>
<defs>
<clipPath id="clip0_84_2247">
<rect width="180.218" height="20" fill="white" transform="translate(0 0.75)"/>
</clipPath>
</defs>
</svg>
