<svg width="181" height="20" viewBox="0 0 181 20" fill="none" xmlns="http://www.w3.org/2000/svg">
<g clip-path="url(#clip0_8_2814)">
<path d="M0 0C1.47362 0 2.94821 0 4.42183 0C4.42856 1.27464 4.40741 2.55024 4.4324 3.82488C4.45259 4.96879 4.73424 6.17326 5.53113 7.03359C6.31456 7.87662 7.5075 8.19961 8.6293 8.17365C9.96065 8.18134 11.3314 7.58248 12.0716 6.44433C12.1379 6.90959 12.2139 7.37196 12.2888 7.83625C13.1184 7.83241 13.9489 7.83529 14.7795 7.83433C14.7968 5.22256 14.7516 2.61176 14.7555 0C16.2291 0 17.7037 0 19.1773 0C19.1773 6.57699 19.1773 13.153 19.1773 19.73C17.7037 19.73 16.2291 19.73 14.7555 19.73C14.7372 18.8879 14.791 18.0468 14.7795 17.2048C14.767 16.2637 14.8448 15.3043 14.6045 14.3825C14.3998 13.5183 13.9307 12.6897 13.1924 12.1744C12.2927 11.5294 11.1286 11.3852 10.051 11.491C8.9023 11.6131 7.78434 12.2023 7.14414 13.1828C7.07397 12.7128 6.99899 12.2446 6.92977 11.7755C6.10116 11.7755 5.27351 11.7755 4.44586 11.7755C4.44586 14.4267 4.44586 17.0788 4.44586 19.73C2.96359 19.73 1.48227 19.73 0 19.73C0 13.153 0 6.57699 0 0Z" fill="#212322"/>
<path d="M56.4268 0C57.9004 0 59.375 0 60.8486 0C60.8486 6.57699 60.8486 13.153 60.8486 19.73C59.375 19.73 57.9004 19.73 56.4268 19.73C56.4268 13.153 56.4268 6.57699 56.4268 0Z" fill="#212322"/>
<path d="M75.2676 0C76.7412 0 78.2158 0 79.6894 0C79.6894 3.16353 79.6904 6.32706 79.6894 9.49059C79.7452 9.49155 79.8576 9.4954 79.9143 9.49636C80.1758 8.08137 80.8833 6.70388 82.058 5.83585C83.398 4.8246 85.1648 4.57467 86.798 4.74097C88.262 4.88228 89.727 5.53305 90.6257 6.72983C91.5928 7.97275 91.8975 9.6021 91.8254 11.1449C91.8254 14.0153 91.8254 16.8847 91.8254 19.754C90.3518 19.754 88.8772 19.754 87.4036 19.754C87.4036 17.2384 87.4026 14.7228 87.4045 12.2062C87.4266 11.2805 87.3382 10.2394 86.6624 9.53769C85.9876 8.86865 84.9879 8.72734 84.0814 8.68024C82.9529 8.65333 81.7138 8.67159 80.7622 9.36082C79.9489 9.97026 79.7163 11.045 79.6904 12.0062C79.6884 14.5805 79.6904 17.1557 79.6894 19.73C78.2158 19.73 76.7412 19.73 75.2676 19.73C75.2676 13.153 75.2676 6.57699 75.2676 0Z" fill="#212322"/>
<path d="M96.2471 19.7301C96.2471 13.1531 96.2471 6.57706 96.2471 7.05206e-05C97.0161 0.00199305 97.7861 -0.0028134 98.556 0.0029542C101.172 3.39334 103.792 6.78181 106.41 10.1703C107.506 11.6074 108.645 13.0127 109.693 14.4854C110.177 15.1564 110.665 15.8235 111.147 16.4954C111.221 16.6194 111.341 16.6963 111.473 16.7521C111.365 11.17 111.427 5.58407 111.411 7.05206e-05C112.116 7.05206e-05 112.82 7.05206e-05 113.526 7.05206e-05C113.526 6.57706 113.526 13.1531 113.526 19.7301C112.754 19.731 111.982 19.7282 111.21 19.731C108.735 16.5531 106.266 13.3694 103.794 10.1895C102.135 8.06414 100.478 5.93686 98.8877 3.75959C98.7012 3.53657 98.5733 3.24146 98.2917 3.12323C98.4234 8.65628 98.3378 14.1941 98.3619 19.7301C97.6563 19.7301 96.9517 19.7301 96.2471 19.7301Z" fill="#212322"/>
<path d="M143.901 0C144.598 0 145.295 0 145.992 0C145.992 1.11315 145.992 2.22726 145.992 3.3404C145.295 3.3404 144.598 3.3404 143.901 3.3404C143.901 2.22726 143.901 1.11315 143.901 0Z" fill="#212322"/>
<path d="M134.433 1.73047C135.138 1.73047 135.842 1.73047 136.548 1.73047C136.548 2.88399 136.548 4.03751 136.548 5.19103C138.478 5.19103 140.408 5.19103 142.339 5.19103C142.339 5.79182 142.339 6.39261 142.339 6.99341C140.409 6.99341 138.478 6.99341 136.548 6.99341C136.547 9.69457 136.55 12.3948 136.547 15.0959C136.543 15.8246 136.624 16.6474 137.181 17.18C137.768 17.7135 138.605 17.7875 139.361 17.825C140.354 17.8413 141.346 17.8269 142.339 17.8317C142.339 18.4642 142.339 19.0977 142.339 19.7302C141.153 19.7292 139.967 19.7312 138.781 19.7302C137.787 19.6975 136.755 19.488 135.939 18.89C135.202 18.3594 134.753 17.5087 134.574 16.632C134.368 15.7486 134.448 14.8373 134.433 13.9386C134.433 11.6238 134.433 9.30814 134.433 6.99341C133.568 6.99341 132.703 6.99341 131.838 6.99341C131.837 6.39261 131.837 5.79182 131.838 5.19103C132.703 5.19103 133.568 5.19103 134.433 5.19103C134.433 4.03751 134.433 2.88399 134.433 1.73047Z" fill="#212322"/>
<path d="M64.4053 2.13892C65.8789 2.13892 67.3535 2.13892 68.8271 2.13892C68.8271 3.08384 68.8271 4.02973 68.8271 4.97465C70.4209 4.97465 72.0147 4.97465 73.6094 4.97465C73.6094 6.19258 73.6094 7.40954 73.6094 8.62747C72.0156 8.62747 70.4209 8.62747 68.8271 8.62747C68.8262 10.303 68.8281 11.9784 68.8262 13.6539C68.8223 14.1894 68.8079 14.7873 69.152 15.2343C69.5269 15.6957 70.1719 15.7332 70.7208 15.762C71.683 15.7697 72.6462 15.762 73.6094 15.7649C73.6094 17.0866 73.6094 18.4084 73.6094 19.7301C72.229 19.7282 70.8487 19.733 69.4683 19.7282C68.1071 19.6772 66.67 19.2985 65.6972 18.292C64.7802 17.3471 64.4389 15.9965 64.4063 14.7123C64.4043 12.684 64.4063 10.6557 64.4053 8.62747C63.6276 8.62747 62.8509 8.62747 62.0742 8.62747C62.0742 7.40954 62.0742 6.19258 62.0742 4.97465C62.8509 4.97465 63.6276 4.97465 64.4053 4.97465C64.4053 4.02973 64.4053 3.08384 64.4053 2.13892Z" fill="#212322"/>
<path d="M25.2289 5.54954C27.1072 4.66518 29.2653 4.53156 31.2955 4.84589C33.0286 5.11505 34.7512 5.8783 35.8855 7.25387C37.2601 8.90244 37.5947 11.196 37.2649 13.2656C33.2517 13.2666 29.2374 13.2637 25.2231 13.2666C25.2827 14.1644 25.4904 15.1622 26.2382 15.7476C27.1245 16.4417 28.3107 16.4945 29.3912 16.5109C30.3448 16.4705 31.3829 16.4522 32.1991 15.8928C32.722 15.539 32.8546 14.8652 32.8056 14.275C34.2792 14.275 35.7519 14.275 37.2255 14.275C37.3197 15.5871 36.8228 16.9213 35.8836 17.8422C34.5378 19.2005 32.6105 19.7869 30.7524 19.9772C29.941 20.0147 29.1278 19.9887 28.3165 19.9916C26.5641 19.8676 24.7733 19.3399 23.4217 18.1758C22.248 17.1751 21.5319 15.7169 21.2791 14.2096C20.9619 12.3457 21.106 10.3472 21.9789 8.64578C22.6729 7.28559 23.8466 6.18975 25.2289 5.54954ZM26.2671 8.89571C25.6355 9.37731 25.3721 10.1742 25.2799 10.9336C27.8993 10.9384 30.5178 10.9278 33.1363 10.9394C33.0921 10.1819 32.8431 9.38307 32.2289 8.89475C31.431 8.27185 30.3707 8.15073 29.3902 8.14496C28.3194 8.13054 27.1466 8.21513 26.2671 8.89571Z" fill="#212322"/>
<path d="M40.5194 6.99513C41.8594 5.58207 43.8108 4.92841 45.7103 4.75057C47.5146 4.59677 49.4102 4.72558 51.0597 5.53209C52.1873 6.07712 53.1216 7.01628 53.6244 8.16692C54.0608 9.12723 54.2127 10.1962 54.1925 11.2439C54.1906 14.0806 54.1915 16.9173 54.1915 19.754C52.814 19.754 51.4356 19.754 50.0581 19.754C50.0571 18.6236 50.06 17.4931 50.0562 16.3627C50.0004 16.3636 49.887 16.3665 49.8312 16.3685C49.4804 17.5681 48.6518 18.6159 47.5463 19.2052C46.6687 19.681 45.6766 19.9396 44.6817 19.9934C43.7493 19.9722 42.7986 20.0799 41.8854 19.8367C40.8482 19.5973 39.8139 19.06 39.2429 18.1276C38.7046 17.2615 38.5979 16.1762 38.8132 15.1919C39.0266 14.2412 39.7331 13.4616 40.5858 13.0204C41.4615 12.5589 42.4439 12.3427 43.4215 12.2388C45.5622 12.0187 47.702 11.8034 49.8428 11.5813C49.8283 10.8825 49.8803 10.1193 49.4977 9.5002C49.1631 8.95804 48.5104 8.74368 47.9125 8.65909C47.0628 8.55143 46.1986 8.5447 45.3498 8.66197C44.7817 8.7456 44.1684 8.93209 43.8175 9.41945C43.4907 9.86163 43.4753 10.4326 43.4436 10.9584C41.9613 10.9584 40.4791 10.9584 38.9978 10.9584C38.9833 9.50789 39.4995 8.04195 40.5194 6.99513ZM44.8951 14.6785C44.4328 14.7324 43.9358 14.7497 43.533 15.0121C42.9755 15.3966 43.0514 16.3934 43.6772 16.6732C44.2011 16.9212 44.8009 16.9164 45.3681 16.9135C46.535 16.8645 47.7924 16.8068 48.7959 16.1368C49.4727 15.6994 49.7985 14.89 49.836 14.1095C48.1894 14.3017 46.5418 14.4892 44.8951 14.6785Z" fill="#212322"/>
<path d="M122.106 4.98615C124.176 4.72085 126.387 5.05248 128.15 6.21658C129.464 7.06345 130.457 8.37654 130.947 9.8569C131.467 11.4411 131.495 13.181 131.041 14.7844C130.627 16.2436 129.738 17.573 128.515 18.4747C127.532 19.2177 126.357 19.6782 125.148 19.8906C124.285 20.0617 123.401 19.9771 122.528 19.9915C120.839 19.8675 119.161 19.2408 117.891 18.1046C116.659 17.0145 115.873 15.4678 115.626 13.85C115.321 11.9034 115.646 9.80979 116.755 8.15449C117.931 6.34539 119.991 5.24281 122.106 4.98615ZM121.922 6.90196C120.846 7.07211 119.784 7.51429 119.01 8.29868C117.904 9.42144 117.553 11.0662 117.585 12.5946C117.585 14.1634 118.045 15.8523 119.289 16.8943C120.637 18.0334 122.505 18.2324 124.203 18.1238C125.437 18.0296 126.708 17.6778 127.649 16.8386C128.652 15.9667 129.139 14.643 129.254 13.3463C129.373 11.938 129.248 10.4452 128.534 9.19651C127.953 8.16603 126.929 7.43162 125.801 7.10479C124.548 6.73662 123.209 6.7049 121.922 6.90196Z" fill="#212322"/>
<path d="M154.599 4.98342C156.446 4.75271 158.391 4.99015 160.047 5.87355C161.566 6.66467 162.768 8.03928 163.349 9.65037C163.929 11.2432 163.975 13.0167 163.554 14.6538C163.145 16.2033 162.204 17.6154 160.894 18.5459C159.93 19.2429 158.796 19.6841 157.629 19.8888C156.767 20.0628 155.884 19.9763 155.012 19.9917C153.146 19.8571 151.282 19.1035 149.985 17.7289C148.824 16.5427 148.171 14.9172 148.031 13.2753C147.859 11.4556 148.255 9.54559 149.311 8.03448C150.508 6.2917 152.523 5.2295 154.599 4.98342ZM154.402 6.90018C153.309 7.0809 152.219 7.52404 151.449 8.34497C150.502 9.31104 150.127 10.6905 150.069 12.0112C150.005 13.3532 150.19 14.7691 150.921 15.9255C151.75 17.2751 153.327 17.9605 154.857 18.098C156.673 18.2633 158.7 18.0797 160.132 16.8339C161.424 15.6996 161.822 13.8847 161.762 12.2314C161.757 10.5886 161.182 8.81791 159.786 7.83934C158.24 6.75023 156.219 6.64545 154.402 6.90018Z" fill="#212322"/>
<path d="M171.551 5.35328C173.019 4.79382 174.676 4.75345 176.183 5.1889C177.602 5.59936 178.828 6.61446 179.485 7.94005C179.998 8.95899 180.248 10.1096 180.214 11.2497C180.212 14.0768 180.214 16.9029 180.213 19.73C179.524 19.73 178.835 19.73 178.146 19.73C178.146 17.1269 178.145 14.5247 178.147 11.9216C178.147 11.0257 178.094 10.1077 177.759 9.26756C177.427 8.3755 176.718 7.6334 175.842 7.26139C174.827 6.81729 173.686 6.76442 172.595 6.84805C171.336 6.95379 170.064 7.46422 169.243 8.45337C168.624 9.18297 168.271 10.1029 168.102 11.0363C167.911 12.0254 167.964 13.0367 167.957 14.0383C167.957 15.9349 167.957 17.8324 167.957 19.73C167.259 19.73 166.562 19.73 165.866 19.73C165.866 14.8833 165.866 10.0375 165.866 5.19083C166.499 5.19083 167.131 5.19083 167.765 5.19083C167.781 6.73558 167.731 8.28322 167.792 9.82606C167.948 9.66456 167.97 9.43386 168.039 9.22911C168.531 7.48825 169.855 5.99925 171.551 5.35328Z" fill="#212322"/>
<path d="M143.901 5.19092C144.598 5.19092 145.295 5.19092 145.992 5.19092C145.992 10.0376 145.992 14.8834 145.992 19.7301C145.294 19.7301 144.598 19.7301 143.901 19.7301C143.901 14.8834 143.901 10.0376 143.901 5.19092Z" fill="#212322"/>
</g>
<defs>
<clipPath id="clip0_8_2814">
<rect width="180.218" height="20" fill="white"/>
</clipPath>
</defs>
</svg>
